<?xml version="1.0" encoding="UTF-8"?>
<svg id="Camada_1" data-name="Camada 1" xmlns="http://www.w3.org/2000/svg" viewBox="0 0 338.01 261.41">
  <defs>
    <style>
      .cls-1 {
        fill: #02b764;
      }
    </style>
  </defs>
  <path class="cls-1" d="M142.41,141.78c-17.67,43.35-29.9,73.36-44.75,109.8-3.02,7.42,6.63,13.39,11.92,7.37,34.83-39.7,66.08-70.64,103.5-116.72,22.37.15,44.74.3,67.11.44,32.88-7.44,56.61-35.91,57.78-68.44,1.27-35.17-24.1-67.16-60-74.22H88.16c-16.65,2.48-28.66,11.06-30.2,21.33-.66,4.41.77,7.99,1.33,9.33,4.33,10.42,17.75,16.67,33.78,16.89h178.69c16.53,3.63,27.7,13.53,27.98,23.56.14,4.98-2.44,8.98-3.56,10.67-8.49,12.81-26.26,12.1-28,12H43.19c-7.82,0-15.56,2.17-22.01,6.61-7.48,5.15-11.83,12.06-11.67,18.73.16,6.42,4.47,11.38,5.78,12.89,8.99,10.36,22.94,9.49,24.89,9.33,34.07.15,68.15.3,102.22.44Z"/>
  <path class="cls-1" d="M118.04,162.15l-18,49.78c-19.85-.37-39.7-.74-59.56-1.11C15.5,208.49.82,195.33.04,184.59s9.28-17.41,9.93-17.78c7.67-4.35,20.69-5.84,24.3-5.78,27.93.37,55.85.74,83.78,1.11Z"/>
</svg>